:version 1.10
:name ASF
:units
  mass 1
  length 1
  angle deg
:documentation
  ASF file generated by Kaydara
:root
  axis xyz
  order  tx ty tz rx ry rz
  position 0 0 0
  orientation 0 0 0
:bonedata
  begin
    id 1
    name SpineDummy
    direction 0.999998 -0.00179978 1.38929e-006
    length 3.60008
    axis 0 0 0 xyz
  end
  begin
    id 2
    name Spine
    direction 0.964365 0.262802 0.0305839
    length 8.13928
    axis 1.33928 -1.75354 15.2838 xyz
    dof rx ry rz
  end
  begin
    id 3
    name Spine1
    direction 0.811168 0.572065 0.12144
    length 7.14954
    axis 2.2224 -6.9761 35.2157 xyz
    dof rx ry rz
  end
  begin
    id 4
    name Neck
    direction 0 0 0
    length 0
    axis 2.2224 -6.9761 35.2157 xyz
    dof rx ry rz
  end
  begin
    id 5
    name HeadDummy
    direction 0.810939 0.572387 0.121455
    length 3.55534
    axis 2.2224 -6.9761 35.2157 xyz
  end
  begin
    id 6
    name Head
    direction 0.998226 -0.000232542 0.0595419
    length 7.35666
    axis -3.03688 -3.41352 -0.0133467 xyz
    dof rx ry rz
  end
  begin
    id 7
    name R_ClavicleDummy
    direction 0.531669 -0.194489 -0.824319
    length 2.49392
    axis 2.2224 -6.9761 35.2157 xyz
  end
  begin
    id 8
    name R_Clavicle
    direction -0.155119 0.0480802 -0.986725
    length 4.485
    axis -54.2764 80.6538 162.779 xyz
    dof rx ry rz
  end
  begin
    id 9
    name R_UpperArm
    direction -0.955567 0.200068 -0.216484
    length 10.1122
    axis -72.9943 12.5026 168.175 xyz
    dof rx ry rz
  end
  begin
    id 10
    name R_Forearm
    direction -0.61433 0.385743 0.688332
    length 9.39148
    axis -117.015 -43.4982 147.875 xyz
    dof rx ry rz
  end
  begin
    id 11
    name R_Hand
    direction -0.699429 0.0170333 0.714499
    length 3.66324
    axis -45.0303 -36.7097 175.478 xyz
    dof rx ry rz
  end
  begin
    id 12
    name L_ClavicleDummy
    direction 0.40287 -0.36502 0.839319
    length 2.49392
    axis 2.2224 -6.9761 35.2157 xyz
  end
  begin
    id 13
    name L_Clavicle
    direction -0.231271 -0.0726419 0.970174
    length 4.485
    axis 18.4357 -75.9711 -162.563 xyz
    dof rx ry rz
  end
  begin
    id 14
    name L_UpperArm
    direction -0.917494 0.144359 0.370629
    length 10.1122
    axis 56.0417 -21.7544 171.058 xyz
    dof rx ry rz
  end
  begin
    id 15
    name L_Forearm
    direction -0.496786 0.615074 -0.612281
    length 9.39148
    axis 89.8094 37.7546 128.927 xyz
    dof rx ry rz
  end
  begin
    id 16
    name L_Hand
    direction -0.409932 0.64962 -0.640274
    length 3.66324
    axis -0.424369 32.133 128.52 xyz
    dof rx ry rz
  end
  begin
    id 17
    name L_ThighDummy
    direction -1.84081e-006 1.87549e-006 1
    length 3.13049
    axis 0 0 0 xyz
  end
  begin
    id 18
    name L_Thigh
    direction -0.947739 0.307978 0.083308
    length 17.9961
    axis 173.219 -4.77873 161.998 xyz
    dof rx ry rz
  end
  begin
    id 19
    name L_Calf
    direction -0.728814 -0.684427 0.0197583
    length 13.3367
    axis 167.331 -1.13214 -136.799 xyz
    dof rx ry rz
  end
  begin
    id 20
    name L_Foot
    direction -0.9028 0.418719 0.0981191
    length 5.8674
    axis 163.436 11.5135 -155.37 xyz
    dof rx ry rz
  end
  begin
    id 21
    name L_Toe0
    direction -0.35341 0.886259 0.299411
    length 4.75286
    axis 169.316 -17.4222 111.74 xyz
    dof rx ry rz
  end
  begin
    id 22
    name R_ThighDummy
    direction 9.32778e-007 -8.82053e-007 -1
    length 3.13049
    axis 0 0 0 xyz
  end
  begin
    id 23
    name R_Thigh
    direction -0.925064 0.37528 -0.0585023
    length 17.9961
    axis -178.698 3.35385 157.919 xyz
    dof rx ry rz
  end
  begin
    id 24
    name R_Calf
    direction -0.68969 -0.718776 -0.0876886
    length 13.3367
    axis -160.504 5.03065 -133.817 xyz
    dof rx ry rz
  end
  begin
    id 25
    name R_Foot
    direction -0.857405 0.418858 -0.299022
    length 5.8674
    axis -161.328 4.38911 -154.413 xyz
    dof rx ry rz
  end
  begin
    id 26
    name R_Toe0
    direction -0.100745 0.952789 -0.286433
    length 4.75286
    axis 171.683 16.6445 96.0359 xyz
    dof rx ry rz
  end
:hierarchy
  begin
    root SpineDummy L_ThighDummy R_ThighDummy
    SpineDummy Spine
    Spine Spine1
    Spine1 Neck
    Neck HeadDummy R_ClavicleDummy L_ClavicleDummy
    HeadDummy Head
    R_ClavicleDummy R_Clavicle
    R_Clavicle R_UpperArm
    R_UpperArm R_Forearm
    R_Forearm R_Hand
    L_ClavicleDummy L_Clavicle
    L_Clavicle L_UpperArm
    L_UpperArm L_Forearm
    L_Forearm L_Hand
    L_ThighDummy L_Thigh
    L_Thigh L_Calf
    L_Calf L_Foot
    L_Foot L_Toe0
    R_ThighDummy R_Thigh
    R_Thigh R_Calf
    R_Calf R_Foot
    R_Foot R_Toe0
  end

:SAMPLES-PER-SECOND 30
:FULLY-SPECIFIED
:DEGREES
128
root  1.33668 31.3241 36.8448 83.7627 12.0954 92.2309
Spine  -7.73345 -1.71925 -5.41364
Spine1  -6.11281 23.7331 5.78498
Neck  3.97569e-016 0 -2.38542e-015
Head  39.2061 -19.3142 12.568
R_Clavicle  0.362877 -18.6165 0.360217
R_UpperArm  23.7414 2.98086 25.9787
R_Forearm  31.8695 -16.5043 14.2241
R_Hand  -1.2659 4.75105 -20.9564
L_Clavicle  -0.471136 16.3374 -2.73966
L_UpperArm  -0.986846 -2.82613 3.19843
L_Forearm  -8.93523 22.7441 28.9784
L_Hand  -0.232201 1.89616 -3.44908
L_Thigh  -7.0125 -2.69542 -29.2701
L_Calf  -6.3885 -1.33427 9.492
L_Foot  2.17352 -0.391447 11.1893
L_Toe0  1.70179 -0.322028 6.21366
R_Thigh  -5.99778 -1.7264 2.20454
R_Calf  -5.37558 8.31224 26.9172
R_Foot  0.803722 -2.49105 -11.2667
R_Toe0  -1.78853 -0.273239 -17.3235
129
root  1.04382 30.9136 37.9049 81.2837 11.953 91.3314
Spine  -7.10015 1.8739 -4.54697
Spine1  -5.75853 20.3554 6.34303
Neck  3.97569e-016 0 -2.38542e-015
Head  39.4661 -18.2209 12.0088
R_Clavicle  0.31959 -17.5213 -0.214167
R_UpperArm  21.3933 4.56785 18.5074
R_Forearm  29.1362 -15.5447 13.3346
R_Hand  -1.2158 3.88642 -20.4066
L_Clavicle  -0.483338 16.4916 -3.61122
L_UpperArm  6.34165 1.15085 9.08732
L_Forearm  -11.2133 25.1732 32.7249
L_Hand  -0.150537 1.79832 -2.23097
L_Thigh  -8.12616 -1.82913 -22.8895
L_Calf  -7.94407 0.72532 -5.61623
L_Foot  0.966033 3.63519 0.59411
L_Toe0  -5.91795 1.36717 11.4102
R_Thigh  -4.22805 -0.771085 3.78951
R_Calf  -5.89366 6.52916 20.8312
R_Foot  0.613559 -0.515212 -6.47627
R_Toe0  -1.78853 -0.273275 -17.3235
130
root  0.607695 30.4657 39.0112 80.6721 12.7535 89.2757
Spine  -6.54615 5.63846 -3.39673
Spine1  -5.42492 17.7062 6.99537
Neck  3.97569e-016 0 -2.38542e-015
Head  38.41 -16.6026 12.0636
R_Clavicle  0.302292 -15.9568 0.0737978
R_UpperArm  19.8503 4.98924 11.6663
R_Forearm  25.8757 -13.0481 11.0712
R_Hand  -1.10888 3.90719 -19.26
L_Clavicle  -0.541213 17.246 -4.54956
L_UpperArm  13.8814 4.38745 15.0086
L_Forearm  -11.3292 27.9453 35.2383
L_Hand  -0.0598097 1.98125 -0.806547
L_Thigh  -7.97418 1.33683 -16.8187
L_Calf  -8.65487 2.51074 -19.0261
L_Foot  0.23286 10.0635 -7.95691
L_Toe0  -10.8698 2.09834 2.77318
R_Thigh  -0.517569 0.195809 3.18898
R_Calf  -7.13187 5.01425 15.9346
R_Foot  0.945441 1.79507 -4.40759
R_Toe0  -1.78853 -0.2733 -17.3235
131
root  0.0830118 30.1179 40.1937 79.5276 14.2416 86.674
Spine  -5.19798 8.81445 -2.38582
Spine1  -4.20689 15.4526 8.51482
Neck  3.97569e-016 0 -2.38542e-015
Head  37.6608 -15.505 10.6401
R_Clavicle  0.331696 -14.343 0.895314
R_UpperArm  16.9821 6.90481 5.56654
R_Forearm  24.5956 -10.5711 8.88705
R_Hand  -1.10743 4.56927 -19.3624
L_Clavicle  -0.684885 19.0231 -5.13561
L_UpperArm  13.1022 6.77845 20.901
L_Forearm  -6.33574 31.2622 35.7087
L_Hand  -0.0139036 1.98077 -0.116
L_Thigh  -8.48815 5.79909 -12.48
L_Calf  -9.52285 3.66026 -28.2032
L_Foot  0.590101 12.1376 -7.82148
L_Toe0  -1.6688 -0.0369649 -5.15437
R_Thigh  2.63372 1.75542 0.863686
R_Calf  -9.81438 3.79936 12.0933
R_Foot  1.0355 2.83809 -2.44714
R_Toe0  -1.78853 -0.273309 -17.3235
132
root  -0.404906 30.1369 41.4304 78.2193 15.1576 84.8524
Spine  -3.5823 10.709 -2.96739
Spine1  -2.51972 13.3384 10.6705
Neck  3.97569e-016 0 -2.38542e-015
Head  37.0571 -14.8723 9.05643
R_Clavicle  0.362136 -12.7144 1.45301
R_UpperArm  13.6381 9.8603 1.36627
R_Forearm  25.2777 -9.49761 7.95594
R_Hand  -1.21767 5.13874 -20.4817
L_Clavicle  -0.814025 20.7562 -5.02441
L_UpperArm  7.68092 9.21402 26.2522
L_Forearm  -2.03985 33.2093 36.1709
L_Hand  -0.0241053 1.44666 -0.31149
L_Thigh  -9.09378 9.56594 -8.66284
L_Calf  -9.23748 4.04858 -31.4843
L_Foot  1.64791 10.9218 -3.45107
L_Toe0  0.752769 0.026439 -6.27963
R_Thigh  4.11902 3.1078 -2.22881
R_Calf  -11.7599 3.30372 10.5234
R_Foot  0.767358 2.98856 1.1673
R_Toe0  -1.78853 -0.273302 -17.3235
133
root  -0.805013 30.542 42.7039 78.8918 15.198 84.3694
Spine  -2.45644 11.6409 -5.13754
Spine1  -1.30844 11.3155 11.5331
Neck  3.97569e-016 0 -2.38542e-015
Head  34.7455 -14.1801 10.2162
R_Clavicle  0.366347 -11.6724 1.56654
R_UpperArm  12.2992 11.7321 1.09631
R_Forearm  25.916 -9.84649 8.2572
R_Hand  -1.20504 5.26212 -20.3735
L_Clavicle  -0.840344 21.4726 -4.45858
L_UpperArm  2.08784 12.0819 31.0045
L_Forearm  -1.29045 33.5922 36.6923
L_Hand  -0.0424624 0.961063 -0.689324
L_Thigh  -7.97151 10.9205 -4.28311
L_Calf  -7.70174 3.72881 -28.8215
L_Foot  2.02462 9.97623 -1.44955
L_Toe0  0.505156 0.034446 -6.1361
R_Thigh  5.07994 3.36828 -5.81675
R_Calf  -11.996 3.66836 11.6823
R_Foot  0.793337 3.93098 4.43475
R_Toe0  -1.78853 -0.273274 -17.3235
134
root  -1.16307 31.1766 43.9967 81.6283 14.9386 84.5189
Spine  -1.45183 12.3161 -7.19216
Spine1  -0.571581 9.32357 9.83969
Neck  3.97569e-016 0 -2.38542e-015
Head  29.8248 -13.3933 14.6613
R_Clavicle  0.371037 -12.1715 1.58713
R_UpperArm  13.0356 11.967 5.2797
R_Forearm  25.6006 -10.97 9.23411
R_Hand  -1.00497 5.07035 -18.44
L_Clavicle  -0.797352 21.219 -3.94276
L_UpperArm  -1.10591 14.9657 35.4982
L_Forearm  -3.32386 32.3554 36.8631
L_Hand  -0.0401174 1.0588 -0.627429
L_Thigh  -5.62607 10.1958 -0.317043
L_Calf  -6.73288 2.7883 -21.2851
L_Foot  1.90028 10.5236 -2.29657
L_Toe0  0.505156 0.034446 -6.1361
R_Thigh  6.45013 3.16452 -10.2597
R_Calf  -11.2196 4.77613 15.2392
R_Foot  1.24016 5.44123 5.29444
R_Toe0  -1.78853 -0.273224 -17.3235
135
root  -1.49325 31.8459 45.2889 84.8611 14.7161 84.5412
Spine  -0.149764 12.883 -8.67629
Spine1  0.366812 7.56237 7.18933
Neck  3.97569e-016 0 -2.38542e-015
Head  23.4251 -12.5437 20.0649
R_Clavicle  0.392178 -13.8579 1.75357
R_UpperArm  13.6479 11.627 11.9183
R_Forearm  25.4257 -12.567 10.6407
R_Hand  -0.832507 4.90509 -16.7151
L_Clavicle  -0.73487 20.5058 -3.58692
L_UpperArm  -1.74476 17.1936 39.5245
L_Forearm  -7.33604 29.4799 36.2553
L_Hand  -0.0297153 1.7161 -0.381009
L_Thigh  -4.134 9.07859 1.69724
L_Calf  -5.67555 1.23382 -9.57344
L_Foot  1.55506 10.6412 -3.5767
L_Toe0  0.505156 0.034446 -6.1361
R_Thigh  8.33953 3.34073 -15.329
R_Calf  -10.1718 6.29873 20.2464
R_Foot  1.49116 6.12761 5.07999
R_Toe0  -1.78853 -0.273148 -17.3235
136
root  -1.77445 32.4784 46.615 87.9669 14.3653 84.7624
Spine  1.06779 12.7044 -11.1725
Spine1  1.6654 6.3079 6.24989
Neck  3.97569e-016 0 -2.38542e-015
Head  17.1041 -11.4312 24.0059
R_Clavicle  0.408912 -15.2302 1.94047
R_UpperArm  12.9797 11.0488 18.35
R_Forearm  26.2403 -14.8361 12.6823
R_Hand  -0.805529 5.02072 -16.5013
L_Clavicle  -0.655121 19.4589 -3.16063
L_UpperArm  -2.52532 18.397 42.5488
L_Forearm  -11.0982 26.2783 34.4217
L_Hand  -0.0445507 2.89653 -0.479239
L_Thigh  -4.85243 8.12503 1.48355
L_Calf  -2.6049 -0.879505 5.87964
L_Foot  0.848839 9.22018 -5.04298
L_Toe0  0.505156 0.034446 -6.1361
R_Thigh  10.6654 3.57657 -20.555
R_Calf  -9.14932 8.05229 26.322
R_Foot  1.40707 5.89678 5.15786
R_Toe0  -1.78853 -0.273044 -17.3235
137
root  -2.01915 32.9891 47.9471 91.0903 13.5804 85.3564
Spine  1.85314 12.3023 -15.0449
Spine1  2.77517 4.59115 7.12315
Neck  3.97569e-016 0 -2.38542e-015
Head  11.5752 -9.97384 26.0831
R_Clavicle  0.411516 -15.6539 1.96827
R_UpperArm  11.4438 9.38671 23.4134
R_Forearm  27.5288 -17.599 15.2511
R_Hand  -0.812984 5.2611 -16.6583
L_Clavicle  -0.559934 17.9756 -2.71485
L_UpperArm  -6.00283 18.7986 44.9093
L_Forearm  -11.7247 23.9891 30.9737
L_Hand  -0.0589279 4.13734 -0.534699
L_Thigh  -7.81988 6.90812 -0.0590552
L_Calf  3.22826 -3.17789 23.386
L_Foot  -0.0117947 6.50122 -6.28566
L_Toe0  0.505156 0.034446 -6.1361
R_Thigh  12.0014 3.99731 -25.3006
R_Calf  -7.10547 10.0376 32.8422
R_Foot  1.32613 5.50782 4.35139
R_Toe0  -1.78493 -0.273009 -17.3267
138
root  -2.23734 33.1927 49.1824 93.6708 12.5044 85.2703
Spine  2.36795 13.6097 -18.3989
Spine1  3.34138 1.34096 7.75546
Neck  3.97569e-016 0 -2.38542e-015
Head  7.13484 -8.69757 27.2616
R_Clavicle  0.405096 -15.8681 1.85297
R_UpperArm  8.97866 6.83849 27.5742
R_Forearm  28.6846 -20.0472 17.6287
R_Hand  -0.713872 5.36972 -15.7701
L_Clavicle  -0.489383 16.7283 -2.36344
L_UpperArm  -9.36882 18.5559 47.4353
L_Forearm  -11.1697 21.4063 26.9117
L_Hand  -0.0496453 4.53499 -0.40339
L_Thigh  -8.6322 5.84145 -1.40282
L_Calf  8.11307 -5.75174 38.8595
L_Foot  -0.670379 3.67303 -6.83191
L_Toe0  0.505156 0.034446 -6.1361
R_Thigh  9.93285 5.63722 -28.6156
R_Calf  -2.19087 12.1423 37.5571
R_Foot  1.05724 4.23338 2.37004
R_Toe0  -1.84446 -0.272446 -17.3346
139
root  -2.39747 33.0743 50.2952 95.5715 11.6746 84.5449
Spine  2.75565 15.6282 -19.9556
Spine1  3.58502 -1.828 7.49561
Neck  3.97569e-016 0 -2.38542e-015
Head  4.11955 -8.22189 27.8473
R_Clavicle  0.401061 -16.7018 1.7284
R_UpperArm  4.70986 5.19934 31.4595
R_Forearm  29.427 -21.6895 19.2695
R_Hand  -0.543837 5.38732 -14.1853
L_Clavicle  -0.495853 16.948 -1.71196
L_UpperArm  -12.3353 17.4122 49.3199
L_Forearm  -10.5424 19.1196 23.5905
L_Hand  -0.12434 3.9146 -1.32705
L_Thigh  -1.20094 4.76078 -1.01319
L_Calf  5.4811 -8.04933 46.2353
L_Foot  -1.0034 3.81741 -8.36517
L_Toe0  0.505156 0.034446 -6.1361
R_Thigh  8.4209 7.75757 -30.4418
R_Calf  2.13562 12.7361 39.3328
R_Foot  0.170824 1.18058 1.55486
R_Toe0  -1.74401 -0.263034 -16.8738
140
root  -2.45913 32.7536 51.3342 98.0554 11.5035 84.7859
Spine  3.0101 14.7456 -20.0383
Spine1  3.71719 -2.02523 7.64784
Neck  3.97569e-016 0 -2.38542e-015
Head  2.37163 -8.21406 26.9643
R_Clavicle  0.406858 -18.1759 1.72863
R_UpperArm  0.271916 5.572 34.7537
R_Forearm  28.6023 -23.3799 20.1783
R_Hand  -0.443685 5.62963 -13.4
L_Clavicle  -0.546309 18.8156 -0.382624
L_UpperArm  -15.2705 15.3404 47.9846
L_Forearm  -10.1042 18.9995 23.4216
L_Hand  -0.293075 2.87809 -3.81276
L_Thigh  0.611046 2.28495 0.793282
L_Calf  8.10903 -5.33875 43.7072
L_Foot  -1.51384 6.48257 -12.249
L_Toe0  0.505156 0.034446 -6.1361
R_Thigh  10.112 8.67406 -31.4815
R_Calf  3.34456 11.5352 38.074
R_Foot  -0.602726 -0.573296 3.67376
R_Toe0  -0.733826 -0.245821 -15.3111
141
root  -2.4006 32.2681 52.3214 101.574 12.3357 86.412
Spine  3.16665 11.4787 -18.1836
Spine1  3.63028 -0.185901 8.45794
Neck  3.97569e-016 0 -2.38542e-015
Head  0.991167 -7.64796 24.4977
R_Clavicle  0.415496 -19.7841 1.83624
R_UpperArm  2.47472 6.60596 36.6169
R_Forearm  23.7064 -27.2261 20.1875
R_Hand  -0.46264 6.60781 -14.1284
L_Clavicle  -0.551251 20.8118 0.960925
L_UpperArm  -18.3676 12.9601 42.2487
L_Forearm  -9.44536 21.9625 27.8164
L_Hand  -0.362521 1.77771 -5.5499
L_Thigh  4.15759 -0.990839 2.42397
L_Calf  9.04058 -3.63469 35.7116
L_Foot  -2.11089 9.37701 -15.9613
L_Toe0  0.505156 0.034446 -6.1361
R_Thigh  11.0855 8.26848 -31.7483
R_Calf  4.02235 9.68335 32.0313
R_Foot  0.0683755 2.47891 7.07785
R_Toe0  -0.93647 -0.146806 -13.201
